<?xml version="1.0" encoding="utf-8"?>
<!-- Generator: Adobe Illustrator 21.1.0, SVG Export Plug-In . SVG Version: 6.00 Build 0)  -->
<svg version="1.1" id="Layer_1" xmlns="http://www.w3.org/2000/svg" xmlns:xlink="http://www.w3.org/1999/xlink" x="0px" y="0px"
	 viewBox="0 0 48 48" style="enable-background:new 0 0 48 48;" xml:space="preserve">
<style type="text/css">
	.st0{fill:#222222;}
	.st1{fill:#F44336;}
	.st2{fill:#FFFFFF;}
	.st3{fill:#40A9FF;}
</style>
<g>
	<path class="st0" d="M41.9,45.6H6.1c-2.2,0-4-1.8-4-4V6.4c0-2.2,1.8-4,4-4h35.8c2.2,0,4,1.8,4,4v35.2
		C45.9,43.8,44.1,45.6,41.9,45.6z"/>
	<circle class="st1" cx="24" cy="19.1" r="9"/>
	<path class="st2" d="M24,7.4c-6.4,0-11.7,5.3-11.7,11.7S17.6,30.8,24,30.8s11.7-5.3,11.7-11.7S30.4,7.4,24,7.4z M31,21.5h-4.7v4.7
		h-4.7v-4.7H17v-4.7h4.7v-4.7h4.7v4.7H31V21.5z"/>
	<path class="st3" d="M34,34.3c-0.7-0.7-1.7-1.1-2.7-1.1h-3c-1.5,0-2.8,0.9-3.5,2.1H27c0.4-0.3,0.8-0.4,1.3-0.4h3
		c0.6,0,1.1,0.2,1.5,0.6s0.6,0.9,0.6,1.5c0,1.2-1,2.1-2.1,2.1h-3c-0.5,0-0.9-0.2-1.3-0.4h-2.2c0.2,0.4,0.4,0.7,0.7,1
		c0.7,0.7,1.7,1.1,2.7,1.1h3c2.1,0,3.9-1.7,3.9-3.9C35.2,35.9,34.7,35,34,34.3z M28.2,36.4c-0.2-0.2-0.4-0.2-0.6-0.2h-7.3
		c-0.5,0-0.9,0.4-0.9,0.8s0.4,0.9,0.8,0.9c0,0,0,0,0,0h7.3c0.5,0,0.9-0.4,0.9-0.8C28.5,36.8,28.4,36.5,28.2,36.4z M22.6,34.4
		c-0.7-0.8-1.7-1.3-2.9-1.3h-3c-2.1,0-3.9,1.7-3.9,3.9c0,1.1,0.4,2,1.1,2.7c0.7,0.7,1.7,1.1,2.7,1.1h3c1.5,0,2.8-0.9,3.5-2.1H21
		c-0.4,0.3-0.8,0.4-1.3,0.4h-3c-1.2,0-2.1-1-2.1-2.1c0-1.2,1-2.1,2.1-2.1h3c0.5,0,0.9,0.2,1.3,0.4h2.2C23,35,22.8,34.7,22.6,34.4z"
		/>
</g>
</svg>
